<?xml version="1.0" encoding="UTF-8"?>
<svg height="128px" viewBox="0 0 128 128" width="128px" xmlns="http://www.w3.org/2000/svg" xmlns:xlink="http://www.w3.org/1999/xlink">
    <filter id="a" height="100%" width="100%" x="0%" y="0%">
        <feColorMatrix color-interpolation-filters="sRGB" values="0 0 0 0 1 0 0 0 0 1 0 0 0 0 1 0 0 0 1 0"/>
    </filter>
    <linearGradient id="b" gradientTransform="matrix(1.612149 0 0 2.818819 1070.846352 -1021.644718)" gradientUnits="userSpaceOnUse" x1="-589.299011" x2="-660.468811" y1="395.320068" y2="395.124512">
        <stop offset="0" stop-color="#345493"/>
        <stop offset="0.156033" stop-color="#5678e8"/>
        <stop offset="0.288112" stop-color="#345493"/>
        <stop offset="0.778333" stop-color="#345493"/>
        <stop offset="0.898268" stop-color="#5678e8"/>
        <stop offset="1" stop-color="#345493"/>
    </linearGradient>
    <linearGradient id="c" gradientTransform="matrix(1.612149 0 0 2.818819 1070.846352 -1024.016621)" gradientUnits="userSpaceOnUse" x1="-636.932495" x2="-637.086243" y1="368.320953" y2="420.633759">
        <stop offset="0" stop-color="#345493"/>
        <stop offset="0.0407591" stop-color="#446aba"/>
        <stop offset="1" stop-color="#345493"/>
    </linearGradient>
    <clipPath id="d">
        <rect height="128" width="128"/>
    </clipPath>
    <clipPath id="e">
        <rect height="128" width="128"/>
    </clipPath>
    <mask id="f">
        <g filter="url(#a)">
            <g clip-path="url(#e)" filter="url(#a)">
                <g clip-path="url(#d)">
                    <path d="m 27.363281 21.1875 c -12.0625 0 -21.765625 16.976562 -21.765625 38.0625 c 0 4.871094 0.585938 39.585938 24.53125 39.992188 c 1.726563 0.027343 4.140625 -0.761719 3.480469 1.328124 l -5.019531 16.039063 l 35.382812 -17.855469 h 35.179688 c 12.0625 0 21.570312 -18.414062 21.570312 -39.503906 c 0 -21.085938 -9.707031 -38.0625 -21.769531 -38.0625 z m 0 0" fill="url(#b)"/>
                    <path d="m 27.308594 18.8125 c -12.058594 0 -21.765625 16.980469 -21.765625 38.066406 c 0 21.085938 9.707031 38.066406 21.765625 38.066406 l 3.15625 0.140626 l -0.65625 17.753906 l 33.914062 -17.894532 h 35.179688 c 12.058594 0 21.765625 -16.980468 21.765625 -38.066406 c 0 -21.085937 -9.707031 -38.066406 -21.765625 -38.066406 z m 0 0" fill="url(#c)"/>
                    <path d="m 38.179688 36.042969 l 14.859374 17.753906 c 0.972657 1.160156 1.128907 2.851563 0.351563 3.78125 l -0.496094 0.59375 c -0.777343 0.925781 -2.195312 0.738281 -3.164062 -0.421875 l -14.859375 -17.753906 c -0.972656 -1.160156 -1.128906 -2.851563 -0.351563 -3.78125 l 0.496094 -0.59375 c 0.777344 -0.925782 2.195313 -0.738282 3.164063 0.421875 z m 0 0" fill="#ffffff"/>
                    <path d="m 34.238281 72.550781 l 16.121094 -19.261719 c 0.625 -0.746093 1.757813 -0.59375 2.535156 0.332032 l 0.496094 0.59375 c 0.777344 0.929687 0.902344 2.285156 0.28125 3.027344 l -16.121094 19.265624 c -0.625 0.742188 -1.757812 0.589844 -2.535156 -0.335937 l -0.496094 -0.59375 c -0.777343 -0.929687 -0.902343 -2.285156 -0.28125 -3.027344 z m 0 0" fill="#ffffff"/>
                    <path d="m 55.597656 67.191406 h 27.558594 c 0.667969 0 1.210938 0.808594 1.210938 1.804688 v 1.347656 c 0 0.996094 -0.542969 1.808594 -1.210938 1.808594 h -27.558594 c -0.667968 0 -1.210937 -0.8125 -1.210937 -1.808594 v -1.347656 c 0 -0.996094 0.542969 -1.804688 1.210937 -1.804688 z m 0 0" fill="#ffffff"/>
                </g>
            </g>
        </g>
    </mask>
    <mask id="g">
        <g filter="url(#a)">
            <rect fill-opacity="0.8" height="184.32" width="184.32" x="-28.16" y="-28.16"/>
        </g>
    </mask>
    <linearGradient id="h" gradientTransform="matrix(0 0.37 -0.98462 0 295.38501 -30.360001)" gradientUnits="userSpaceOnUse" x1="300" x2="428" y1="235" y2="235">
        <stop offset="0" stop-color="#f9f06b"/>
        <stop offset="1" stop-color="#f5c211"/>
    </linearGradient>
    <clipPath id="i">
        <rect height="128" width="128"/>
    </clipPath>
    <clipPath id="j">
        <rect height="128" width="128"/>
    </clipPath>
    <path d="m 27.363281 21.1875 c -12.0625 0 -21.765625 16.976562 -21.765625 38.0625 c 0 4.871094 0.585938 39.585938 24.53125 39.992188 c 1.726563 0.027343 4.140625 -0.761719 3.480469 1.328124 l -5.019531 16.039063 l 35.382812 -17.855469 h 35.179688 c 12.0625 0 21.570312 -18.414062 21.570312 -39.503906 c 0 -21.085938 -9.707031 -38.0625 -21.769531 -38.0625 z m 0 0" fill="url(#b)"/>
    <path d="m 27.308594 18.8125 c -12.058594 0 -21.765625 16.980469 -21.765625 38.066406 c 0 21.085938 9.707031 38.066406 21.765625 38.066406 l 3.15625 0.140626 l -0.65625 17.753906 l 33.914062 -17.894532 h 35.179688 c 12.058594 0 21.765625 -16.980468 21.765625 -38.066406 c 0 -21.085937 -9.707031 -38.066406 -21.765625 -38.066406 z m 0 0" fill="url(#c)"/>
    <g fill="#ffffff">
        <path d="m 38.179688 36.042969 l 14.859374 17.753906 c 0.972657 1.160156 1.128907 2.851563 0.351563 3.78125 l -0.496094 0.59375 c -0.777343 0.925781 -2.195312 0.738281 -3.164062 -0.421875 l -14.859375 -17.753906 c -0.972656 -1.160156 -1.128906 -2.851563 -0.351563 -3.78125 l 0.496094 -0.59375 c 0.777344 -0.925782 2.195313 -0.738282 3.164063 0.421875 z m 0 0"/>
        <path d="m 34.238281 72.550781 l 16.121094 -19.261719 c 0.625 -0.746093 1.757813 -0.59375 2.535156 0.332032 l 0.496094 0.59375 c 0.777344 0.929687 0.902344 2.285156 0.28125 3.027344 l -16.121094 19.265624 c -0.625 0.742188 -1.757812 0.589844 -2.535156 -0.335937 l -0.496094 -0.59375 c -0.777343 -0.929687 -0.902343 -2.285156 -0.28125 -3.027344 z m 0 0"/>
        <path d="m 55.597656 67.191406 h 27.558594 c 0.667969 0 1.210938 0.808594 1.210938 1.804688 v 1.347656 c 0 0.996094 -0.542969 1.808594 -1.210938 1.808594 h -27.558594 c -0.667968 0 -1.210937 -0.8125 -1.210937 -1.808594 v -1.347656 c 0 -0.996094 0.542969 -1.804688 1.210937 -1.804688 z m 0 0"/>
    </g>
    <g mask="url(#f)">
        <g clip-path="url(#j)">
            <g mask="url(#g)">
                <g clip-path="url(#i)">
                    <path d="m 128 80.640625 v 47.359375 h -128 v -47.359375 z m 0 0" fill="url(#h)"/>
                    <path d="m 13.308594 80.640625 l 47.355468 47.359375 h 21.214844 l -47.359375 -47.359375 z m 42.421875 0 l 47.363281 47.359375 h 21.214844 l -47.363282 -47.359375 z m 42.429687 0 l 29.839844 29.839844 v -21.210938 l -8.628906 -8.628906 z m -98.160156 7.90625 v 21.214844 l 18.238281 18.238281 h 21.214844 z m 0 0"/>
                </g>
            </g>
        </g>
    </g>
</svg>
