<?xml version="1.0" encoding="UTF-8"?>
<svg height="128px" viewBox="0 0 128 128" width="128px" xmlns="http://www.w3.org/2000/svg" xmlns:xlink="http://www.w3.org/1999/xlink">
    <linearGradient id="a" gradientTransform="matrix(1.562589 0 0 2.376866 1040.555549 -851.120005)" gradientUnits="userSpaceOnUse" x1="-619.743958" x2="-620.549927" y1="527.576172" y2="345.060394">
        <stop offset="0" stop-color="#291ab5"/>
        <stop offset="1" stop-color="#7e47e2"/>
    </linearGradient>
    <path d="m 29.148438 28.207031 c -11.6875 0 -21.097657 14.316407 -21.097657 32.097657 s 9.410157 32.097656 21.097657 32.097656 h 2.195312 l -2.421875 22.484375 l 35.519531 -22.484375 h 34.097656 c 11.691407 0 21.097657 -14.316406 21.097657 -32.097656 s -9.40625 -32.097657 -21.097657 -32.097657 z m 0 0" fill="url(#a)"/>
    <g fill="#ffffff">
        <path d="m 37.636719 42.734375 l 14.402343 14.972656 c 0.941407 0.976563 1.09375 2.40625 0.339844 3.1875 l -0.480468 0.5 c -0.753907 0.785157 -2.128907 0.625 -3.070313 -0.351562 l -14.402344 -14.972657 c -0.941406 -0.976562 -1.09375 -2.40625 -0.339843 -3.1875 l 0.480468 -0.5 c 0.753906 -0.785156 2.128906 -0.625 3.070313 0.351563 z m 0 0"/>
        <path d="m 33.816406 73.519531 l 15.625 -16.242187 c 0.601563 -0.628906 1.703125 -0.5 2.457032 0.28125 l 0.480468 0.5 c 0.753906 0.785156 0.875 1.925781 0.269532 2.554687 l -15.625 16.242188 c -0.601563 0.628906 -1.703126 0.5 -2.457032 -0.28125 l -0.480468 -0.5 c -0.753907 -0.785157 -0.875 -1.925781 -0.269532 -2.554688 z m 0 0"/>
        <path d="m 54.515625 69 h 26.714844 c 0.648437 0 1.171875 0.683594 1.171875 1.523438 v 1.136718 c 0 0.839844 -0.523438 1.523438 -1.171875 1.523438 h -26.714844 c -0.648437 0 -1.171875 -0.683594 -1.171875 -1.523438 v -1.136718 c 0 -0.839844 0.523438 -1.523438 1.171875 -1.523438 z m 0 0"/>
    </g>
</svg>
